<svg xmlns="http://www.w3.org/2000/svg"  viewBox="0 0 100 100" width="100px" height="100px"><path fill="#c7ede6" d="M87.215,56.71C88.35,54.555,89,52.105,89,49.5c0-6.621-4.159-12.257-10.001-14.478 C78.999,35.015,79,35.008,79,35c0-11.598-9.402-21-21-21c-9.784,0-17.981,6.701-20.313,15.757C36.211,29.272,34.638,29,33,29 c-7.692,0-14.023,5.793-14.89,13.252C12.906,43.353,9,47.969,9,53.5C9,59.851,14.149,65,20.5,65c0.177,0,0.352-0.012,0.526-0.022 C21.022,65.153,21,65.324,21,65.5C21,76.822,30.178,86,41.5,86c6.437,0,12.175-2.972,15.934-7.614C59.612,80.611,62.64,82,66,82 c4.65,0,8.674-2.65,10.666-6.518C77.718,75.817,78.837,76,80,76c6.075,0,11-4.925,11-11C91,61.689,89.53,58.727,87.215,56.71z"/><path fill="#fdfcef" d="M82.5,36.5c0,0,1.567,0,3.5,0s3.5-1.567,3.5-3.5c0-1.781-1.335-3.234-3.055-3.455 C86.473,29.366,86.5,29.187,86.5,29c0-1.933-1.567-3.5-3.5-3.5c-1.032,0-1.95,0.455-2.59,1.165 c-0.384-1.808-1.987-3.165-3.91-3.165c-2.209,0-4,1.791-4,4c0,0.191,0.03,0.374,0.056,0.558C72.128,27.714,71.592,27.5,71,27.5 c-1.228,0-2.245,0.887-2.455,2.055C68.366,29.527,68.187,29.5,68,29.5c-1.933,0-3.5,1.567-3.5,3.5s1.567,3.5,3.5,3.5s7.5,0,7.5,0 V37h7V36.5z"/><path fill="#472b29" d="M84.25,32C84.112,32,84,31.888,84,31.75c0-1.223,0.995-2.218,2.218-2.218 c0.034,0.009,0.737-0.001,1.244,0.136c0.133,0.036,0.212,0.173,0.176,0.306c-0.036,0.134-0.173,0.213-0.306,0.176 c-0.444-0.12-1.1-0.12-1.113-0.118c-0.948,0-1.719,0.771-1.719,1.718C84.5,31.888,84.388,32,84.25,32z"/><circle cx="77.5" cy="36.5" r=".5" fill="#472b29"/><path fill="#472b29" d="M86,37h-3.5c-0.276,0-0.5-0.224-0.5-0.5s0.224-0.5,0.5-0.5H86c1.654,0,3-1.346,3-3 c0-1.496-1.125-2.768-2.618-2.959c-0.134-0.018-0.255-0.088-0.336-0.196s-0.115-0.244-0.094-0.377C85.975,29.314,86,29.16,86,29 c0-1.654-1.346-3-3-3c-0.85,0-1.638,0.355-2.219,1c-0.125,0.139-0.321,0.198-0.5,0.148c-0.182-0.049-0.321-0.195-0.36-0.379 C79.58,25.165,78.141,24,76.5,24c-1.93,0-3.5,1.57-3.5,3.5c0,0.143,0.021,0.28,0.041,0.418c0.029,0.203-0.063,0.438-0.242,0.54 c-0.179,0.102-0.396,0.118-0.556-0.01C71.878,28.155,71.449,28,71,28c-0.966,0-1.792,0.691-1.963,1.644 c-0.048,0.267-0.296,0.446-0.569,0.405C68.314,30.025,68.16,30,68,30c-1.654,0-3,1.346-3,3s1.346,3,3,3h7.5 c0.276,0,0.5,0.224,0.5,0.5S75.776,37,75.5,37H68c-2.206,0-4-1.794-4-4s1.794-4,4-4c0.059,0,0.116,0.002,0.174,0.006 C68.588,27.82,69.711,27,71,27c0.349,0,0.689,0.061,1.011,0.18C72.176,24.847,74.126,23,76.5,23c1.831,0,3.466,1.127,4.153,2.774 C81.333,25.276,82.155,25,83,25c2.206,0,4,1.794,4,4c0,0.048-0.001,0.095-0.004,0.142C88.739,29.59,90,31.169,90,33 C90,35.206,88.206,37,86,37z"/><path fill="#472b29" d="M80.5,36c-0.159,0-0.841,0-1,0c-0.276,0-0.5,0.224-0.5,0.5c0,0.276,0.224,0.5,0.5,0.5 c0.159,0,0.841,0,1,0c0.276,0,0.5-0.224,0.5-0.5C81,36.224,80.776,36,80.5,36z"/><path fill="#fff" d="M15.405,51H5.5C5.224,51,5,50.776,5,50.5S5.224,50,5.5,50h9.905c0.276,0,0.5,0.224,0.5,0.5 S15.682,51,15.405,51z"/><path fill="#fff" d="M18.5,51h-1c-0.276,0-0.5-0.224-0.5-0.5s0.224-0.5,0.5-0.5h1c0.276,0,0.5,0.224,0.5,0.5 S18.777,51,18.5,51z"/><path fill="#fff" d="M23.491,53H14.5c-0.276,0-0.5-0.224-0.5-0.5s0.224-0.5,0.5-0.5h8.991c0.276,0,0.5,0.224,0.5,0.5 S23.767,53,23.491,53z"/><path fill="#fff" d="M12.5,53h-1c-0.276,0-0.5-0.224-0.5-0.5s0.224-0.5,0.5-0.5h1c0.276,0,0.5,0.224,0.5,0.5 S12.777,53,12.5,53z"/><path fill="#fff" d="M9.5,53h-2C7.224,53,7,52.776,7,52.5S7.224,52,7.5,52h2c0.276,0,0.5,0.224,0.5,0.5S9.777,53,9.5,53 z"/><path fill="#fff" d="M15.5,55h-2c-0.276,0-0.5-0.224-0.5-0.5s0.224-0.5,0.5-0.5h2c0.276,0,0.5,0.224,0.5,0.5 S15.776,55,15.5,55z"/><path fill="#fff" d="M18.5,46c-0.177,0-0.823,0-1,0c-0.276,0-0.5,0.224-0.5,0.5c0,0.276,0.224,0.5,0.5,0.5 c0.177,0,0.823,0,1,0c0.276,0,0.5-0.224,0.5-0.5C19,46.224,18.776,46,18.5,46z"/><path fill="#fff" d="M18.5,48c-0.177,0-4.823,0-5,0c-0.276,0-0.5,0.224-0.5,0.5c0,0.276,0.224,0.5,0.5,0.5 c0.177,0,4.823,0,5,0c0.276,0,0.5-0.224,0.5-0.5C19,48.224,18.776,48,18.5,48z"/><path fill="#fff" d="M23.5,50c-0.177,0-2.823,0-3,0c-0.276,0-0.5,0.224-0.5,0.5c0,0.276,0.224,0.5,0.5,0.5 c0.177,0,2.823,0,3,0c0.276,0,0.5-0.224,0.5-0.5C24,50.224,23.776,50,23.5,50z"/><path fill="#fff" d="M87.5,65h-10c-0.276,0-0.5-0.224-0.5-0.5s0.224-0.5,0.5-0.5h10c0.276,0,0.5,0.224,0.5,0.5 S87.776,65,87.5,65z"/><path fill="#fff" d="M91.5,65h-2c-0.276,0-0.5-0.224-0.5-0.5s0.224-0.5,0.5-0.5h2c0.276,0,0.5,0.224,0.5,0.5 S91.776,65,91.5,65z"/><path fill="#fff" d="M96.5,67h-10c-0.276,0-0.5-0.224-0.5-0.5s0.224-0.5,0.5-0.5h10c0.276,0,0.5,0.224,0.5,0.5 S96.777,67,96.5,67z"/><path fill="#fff" d="M84.5,67h-1c-0.276,0-0.5-0.224-0.5-0.5s0.224-0.5,0.5-0.5h1c0.276,0,0.5,0.224,0.5,0.5 S84.776,67,84.5,67z"/><path fill="#fff" d="M81.375,67H79.5c-0.276,0-0.5-0.224-0.5-0.5s0.224-0.5,0.5-0.5h1.875c0.276,0,0.5,0.224,0.5,0.5 S81.651,67,81.375,67z"/><path fill="#fff" d="M90.5,63h-5c-0.276,0-0.5-0.224-0.5-0.5s0.224-0.5,0.5-0.5h5c0.276,0,0.5,0.224,0.5,0.5 S90.777,63,90.5,63z"/><path fill="#fff" d="M87.5,69h-2c-0.276,0-0.5-0.224-0.5-0.5s0.224-0.5,0.5-0.5h2c0.276,0,0.5,0.224,0.5,0.5 S87.776,69,87.5,69z"/><path fill="#1e65d6" d="M29.989,64.011V35.989c0-3.866,3.134-7,7-7h28.023c3.866,0,7,3.134,7,7v28.023c0,3.866-3.134,7-7,7 H36.989C33.123,71.011,29.989,67.877,29.989,64.011z"/><path fill="#472b29" d="M65,29.4c3.639,0,6.6,2.961,6.6,6.6v28c0,3.639-2.961,6.6-6.6,6.6H37c-3.639,0-6.6-2.961-6.6-6.6V36 c0-3.639,2.961-6.6,6.6-6.6H65 M65,28H37c-4.418,0-8,3.582-8,8v28c0,4.418,3.582,8,8,8h28c4.418,0,8-3.582,8-8V36 C73,31.582,69.418,28,65,28L65,28z"/><path fill="#472b29" d="M64.5,69h-5c-0.276,0-0.5-0.224-0.5-0.5s0.224-0.5,0.5-0.5h5c2.481,0,4.5-2.019,4.5-4.5v-27 c0-2.481-2.019-4.5-4.5-4.5h-27c-2.481,0-4.5,2.019-4.5,4.5v3c0,0.276-0.224,0.5-0.5,0.5S32,39.776,32,39.5v-3 c0-3.033,2.468-5.5,5.5-5.5h27c3.032,0,5.5,2.467,5.5,5.5v27C70,66.533,67.532,69,64.5,69z"/><path fill="#472b29" d="M56.5,69h-2c-0.276,0-0.5-0.224-0.5-0.5s0.224-0.5,0.5-0.5h2c0.276,0,0.5,0.224,0.5,0.5 S56.776,69,56.5,69z"/><path fill="#472b29" d="M51.5,69h-14c-3.032,0-5.5-2.467-5.5-5.5v-8c0-0.276,0.224-0.5,0.5-0.5s0.5,0.224,0.5,0.5v8 c0,2.481,2.019,4.5,4.5,4.5h14c0.276,0,0.5,0.224,0.5,0.5S51.776,69,51.5,69z"/><path fill="#472b29" d="M32.5,49c-0.276,0-0.5-0.224-0.5-0.5v-6c0-0.276,0.224-0.5,0.5-0.5s0.5,0.224,0.5,0.5v6 C33,48.776,32.776,49,32.5,49z"/><g><path fill="#fdfcef" d="M37.875,79.5c0,0,3.64,0,6.125,0s4.5-2.015,4.5-4.5c0-2.333-1.782-4.229-4.055-4.455 C44.467,70.364,44.5,70.187,44.5,70c0-2.485-2.015-4.5-4.5-4.5c-1.438,0-2.703,0.686-3.527,1.736 C36.333,64.6,34.171,62.5,31.5,62.5c-2.761,0-5,2.239-5,5c0,0.446,0.077,0.87,0.187,1.282C26.045,68.005,25.086,67.5,24,67.5 c-1.781,0-3.234,1.335-3.455,3.055C20.364,70.533,20.187,70.5,20,70.5c-2.485,0-4.5,2.015-4.5,4.5s2.015,4.5,4.5,4.5s9.5,0,9.5,0 h5.375V80h3V79.5z"/><path fill="#472b29" d="M31.5,62c-3.033,0-5.5,2.467-5.5,5.5c0,0.016,0,0.031,0,0.047C25.398,67.192,24.71,67,24,67 c-1.831,0-3.411,1.261-3.858,3.005C20.095,70.002,20.048,70,20,70c-2.757,0-5,2.243-5,5s2.243,5,5,5h14.875 c0.276,0,0.5-0.224,0.5-0.5s-0.224-0.5-0.5-0.5H20c-2.206,0-4-1.794-4-4s1.794-4,4-4c0.117,0,0.23,0.017,0.343,0.032l0.141,0.019 c0.021,0.003,0.041,0.004,0.062,0.004c0.246,0,0.462-0.185,0.495-0.437C21.232,69.125,22.504,68,24,68 c0.885,0,1.723,0.401,2.301,1.1c0.098,0.118,0.241,0.182,0.386,0.182c0.078,0,0.156-0.018,0.228-0.056 c0.209-0.107,0.314-0.346,0.254-0.573C27.054,68.218,27,67.852,27,67.5c0-2.481,2.019-4.5,4.5-4.5 c2.381,0,4.347,1.872,4.474,4.263c0.011,0.208,0.15,0.387,0.349,0.45c0.05,0.016,0.101,0.024,0.152,0.024 c0.15,0,0.296-0.069,0.392-0.192C37.638,66.563,38.779,66,40,66c2.206,0,4,1.794,4,4c0,0.117-0.017,0.23-0.032,0.343l-0.019,0.141 c-0.016,0.134,0.022,0.268,0.106,0.373c0.084,0.105,0.207,0.172,0.34,0.185C46.451,71.247,48,72.949,48,75c0,2.206-1.794,4-4,4 h-6.125c-0.276,0-0.5,0.224-0.5,0.5s0.224,0.5,0.5,0.5H44c2.757,0,5-2.243,5-5c0-2.397-1.689-4.413-4.003-4.877 C44.999,70.082,45,70.041,45,70c0-2.757-2.243-5-5-5c-1.176,0-2.293,0.416-3.183,1.164C36.219,63.76,34.055,62,31.5,62L31.5,62z"/><path fill="#472b29" d="M30,69c-1.403,0-2.609,0.999-2.913,2.341C26.72,71.119,26.301,71,25.875,71 c-1.202,0-2.198,0.897-2.353,2.068C23.319,73.022,23.126,73,22.937,73c-1.529,0-2.811,1.2-2.918,2.732 C20.01,75.87,20.114,75.99,20.251,76c0.006,0,0.012,0,0.018,0c0.13,0,0.24-0.101,0.249-0.232c0.089-1.271,1.151-2.268,2.419-2.268 c0.229,0,0.47,0.041,0.738,0.127c0.022,0.007,0.045,0.01,0.067,0.01c0.055,0,0.11-0.02,0.156-0.054 C23.962,73.537,24,73.455,24,73.375c0-1.034,0.841-1.875,1.875-1.875c0.447,0,0.885,0.168,1.231,0.473 c0.047,0.041,0.106,0.063,0.165,0.063c0.032,0,0.063-0.006,0.093-0.019c0.088-0.035,0.148-0.117,0.155-0.212 C27.623,70.512,28.712,69.5,30,69.5c0.208,0,0.425,0.034,0.682,0.107c0.023,0.007,0.047,0.01,0.07,0.01 c0.109,0,0.207-0.073,0.239-0.182c0.038-0.133-0.039-0.271-0.172-0.309C30.517,69.04,30.256,69,30,69L30,69z"/><path fill="#472b29" d="M43.883,70.5c-1.326,0-2.508,0.897-2.874,2.182c-0.038,0.133,0.039,0.271,0.172,0.309 C41.205,72.997,41.228,73,41.25,73c0.109,0,0.209-0.072,0.24-0.182C41.795,71.748,42.779,71,43.883,71 c0.117,0,0.23,0.014,0.342,0.029c0.012,0.002,0.023,0.003,0.035,0.003c0.121,0,0.229-0.092,0.246-0.217 c0.019-0.137-0.077-0.263-0.214-0.281C44.158,70.516,44.022,70.5,43.883,70.5L43.883,70.5z"/></g><path fill="#f8e55b" d="M44.763,47.148c-0.082,0.165-0.082,0.325-0.082,0.489V49.7c0,0,1.106-1.436,1.359-1.777 c0.193-0.253,0.429-0.611,0.429-0.776h3.609c-0.247,0.165-0.523,0.462-0.748,0.738c-0.198,0.242-1.32,1.612-1.32,1.612 s1.667,2.537,1.881,2.861c0.121,0.176,0.253,0.341,0.407,0.489h-4.153c0-0.165-0.16-0.501-0.335-0.764 c-0.176-0.264-1.128-1.711-1.128-1.711v1.986c0,0.165,0,0.325,0.082,0.489h-3.461c0.082-0.165,0.082-0.325,0.082-0.489v-4.721 c0-0.165,0-0.325-0.082-0.489L44.763,47.148L44.763,47.148z"/><path fill="#472b29" d="M50.077,47.147h0.005 M50.077,47.147c-0.247,0.165-0.523,0.462-0.748,0.738 c-0.198,0.242-1.32,1.612-1.32,1.612s1.667,2.537,1.881,2.861c0.121,0.176,0.253,0.341,0.407,0.489h-4.153 c0-0.165-0.16-0.501-0.335-0.764s-1.128-1.711-1.128-1.711v1.986c0,0.165,0,0.325,0.082,0.489h-3.461 c0.082-0.165,0.082-0.325,0.082-0.489v-4.721c0-0.165,0-0.325-0.082-0.489h3.461v0.001c-0.082,0.165-0.082,0.325-0.082,0.489V49.7 c0,0,1.106-1.436,1.359-1.777c0.193-0.253,0.429-0.611,0.429-0.776H50.077 M50.082,46.647h-0.005h-3.609 c-0.261,0-0.475,0.2-0.498,0.455c-0.026,0.069-0.13,0.257-0.329,0.518c-0.085,0.114-0.262,0.347-0.461,0.607v-0.59 c0-0.136,0.001-0.209,0.03-0.267c0.077-0.155,0.069-0.339-0.023-0.486c-0.091-0.147-0.252-0.237-0.425-0.237l-3.461-0.001 c-0.173,0-0.334,0.09-0.425,0.237s-0.099,0.331-0.022,0.487c0.028,0.056,0.029,0.13,0.029,0.266v4.721 c0,0.136-0.001,0.209-0.03,0.267c-0.077,0.155-0.069,0.339,0.023,0.486c0.091,0.147,0.252,0.237,0.425,0.237h3.461 c0.173,0,0.334-0.09,0.425-0.237c0.091-0.147,0.099-0.331,0.022-0.486c-0.028-0.056-0.029-0.13-0.029-0.266V52.04 c0.096,0.145,0.173,0.261,0.211,0.32c0.158,0.236,0.244,0.451,0.253,0.509c0,0.276,0.223,0.478,0.499,0.478h4.153 c0.204,0,0.387-0.124,0.464-0.313c0.076-0.189,0.03-0.406-0.117-0.547c-0.115-0.111-0.227-0.246-0.342-0.413 c-0.163-0.247-1.223-1.859-1.673-2.544l1.088-1.328c0.24-0.293,0.461-0.515,0.625-0.629c0.143-0.088,0.239-0.246,0.239-0.425 C50.58,46.871,50.359,46.647,50.082,46.647L50.082,46.647z M50.077,47.647h0.005H50.077L50.077,47.647z"/><path fill="#f8e55b" d="M57.577,47.148h-6.679c0.082,0.165,0.082,0.325,0.082,0.489v4.721c0,0.165,0,0.325-0.082,0.489 h6.679v-1.579c-0.165,0.082-0.325,0.082-0.489,0.082h-2.811v-0.748h2.701v-1.205h-2.701v-0.753h2.811c0.165,0,0.325,0,0.489,0.077 L57.577,47.148z"/><path fill="#472b29" d="M57.577,47.148v1.574c-0.164-0.077-0.324-0.077-0.489-0.077h-2.811v0.753h2.701v1.205h-2.701v0.748 h2.811c0.164,0,0.324,0,0.489-0.082v1.579h-6.679c0.082-0.164,0.082-0.324,0.082-0.489v-4.721c0-0.164,0-0.324-0.082-0.489H57.577 M57.577,46.648h-6.679c-0.173,0-0.334,0.09-0.425,0.237c-0.091,0.147-0.1,0.331-0.023,0.486c0.029,0.057,0.03,0.131,0.03,0.267 v4.721c0,0.136-0.001,0.209-0.029,0.266c-0.077,0.155-0.069,0.339,0.022,0.486c0.091,0.147,0.252,0.237,0.425,0.237h6.679 c0.276,0,0.5-0.224,0.5-0.5v-1.579c0-0.173-0.09-0.334-0.237-0.425c-0.08-0.05-0.172-0.075-0.263-0.075 c-0.045,0-0.09,0.006-0.134,0.018c0.023-0.057,0.035-0.119,0.035-0.184v-1.205c0-0.069-0.014-0.135-0.04-0.195 c0.045,0.013,0.092,0.02,0.139,0.02c0.094,0,0.187-0.026,0.268-0.078c0.145-0.092,0.232-0.251,0.232-0.422v-1.574 C58.077,46.872,57.853,46.648,57.577,46.648L57.577,46.648z"/><path fill="#f8e55b" d="M66.831,52.358c-0.12-0.319-1.666-4.358-1.81-4.715c-0.06-0.164-0.148-0.324-0.104-0.489h-4.825 c0.022,0.164-0.039,0.324-0.099,0.489l-1.711,4.721c-0.055,0.182-0.143,0.346-0.259,0.489h2.856 c-0.022-0.164,0.038-0.324,0.094-0.489c0.055-0.165,0.116-0.325,0.116-0.325l0.033-0.088h2.085l0.033,0.082 c0.077,0.193,0.132,0.325,0.132,0.325c0.066,0.164,0.126,0.324,0.11,0.489h3.62C66.979,52.705,66.886,52.54,66.831,52.358z M61.554,50.746c0.247-0.688,0.462-1.265,0.479-1.32c0.044-0.121,0.077-0.248,0.099-0.374c0.028,0.127,0.066,0.253,0.11,0.374 l0.506,1.32H61.554z"/><path fill="#472b29" d="M64.917,47.154h0.005 M64.917,47.154c-0.044,0.165,0.044,0.325,0.104,0.489 c0.143,0.357,1.689,4.396,1.81,4.715c0.055,0.182,0.148,0.347,0.27,0.489h-3.62c0.016-0.165-0.044-0.325-0.11-0.489 c0,0-0.055-0.132-0.132-0.325l-0.033-0.082H61.12l-0.033,0.088c0,0-0.06,0.16-0.116,0.325c-0.055,0.165-0.116,0.325-0.094,0.489 h-2.856c0.116-0.143,0.203-0.308,0.259-0.489l1.711-4.721c0.06-0.165,0.121-0.325,0.099-0.489H64.917 M61.554,50.746h1.194 l-0.506-1.32c-0.044-0.121-0.082-0.247-0.11-0.374c-0.022,0.126-0.055,0.253-0.099,0.374 C62.017,49.481,61.802,50.058,61.554,50.746 M64.922,46.654h-0.005h-4.825c-0.144,0-0.281,0.062-0.376,0.171 c-0.095,0.108-0.138,0.253-0.119,0.396c0.005,0.037-0.039,0.156-0.067,0.235l-1.718,4.738c-0.044,0.143-0.101,0.251-0.178,0.346 c-0.121,0.15-0.145,0.356-0.062,0.53c0.083,0.174,0.259,0.284,0.451,0.284h2.856c0.144,0,0.281-0.062,0.376-0.171 c0.095-0.109,0.138-0.253,0.119-0.396c-0.005-0.036,0.034-0.15,0.059-0.226c0.013-0.039,0.026-0.076,0.038-0.11h1.397 c0.026,0.063,0.042,0.101,0.042,0.101c0.027,0.068,0.078,0.196,0.073,0.247c-0.014,0.14,0.032,0.28,0.127,0.385 c0.095,0.105,0.229,0.164,0.371,0.164h3.62c0.195,0,0.372-0.113,0.454-0.29c0.082-0.177,0.053-0.385-0.073-0.534 c-0.08-0.094-0.138-0.198-0.172-0.311c-0.097-0.26-1.674-4.381-1.824-4.755l-0.034-0.088c-0.014-0.035-0.033-0.084-0.042-0.113 c0.007-0.033,0.01-0.067,0.01-0.102c0,0,0,0,0,0c0.01-0.118-0.027-0.227-0.104-0.327c-0.088-0.115-0.223-0.166-0.366-0.172 C64.94,46.654,64.931,46.654,64.922,46.654L64.922,46.654z M64.917,47.654h0.005H64.917L64.917,47.654z"/><path fill="#f8e55b" d="M39.581,47.637c0-0.165,0-0.325,0.082-0.489H35.9c0.082,0.165,0.082,0.325,0.082,0.489v4.721 c0,0.165,0,0.325-0.082,0.489h3.764c-0.082-0.165-0.082-0.325-0.082-0.489L39.581,47.637L39.581,47.637z"/><path fill="#472b29" d="M39.663,47.148c-0.082,0.164-0.082,0.324-0.082,0.489h0.001v4.721c0,0.164,0,0.324,0.082,0.489H35.9 c0.082-0.164,0.082-0.324,0.082-0.489v-4.721c0-0.164,0-0.324-0.082-0.489H39.663 M39.663,46.648H35.9 c-0.173,0-0.334,0.09-0.425,0.237c-0.091,0.147-0.1,0.331-0.023,0.486c0.029,0.057,0.03,0.131,0.03,0.267v4.721 c0,0.136-0.001,0.209-0.029,0.266c-0.077,0.155-0.069,0.339,0.022,0.486c0.091,0.147,0.252,0.237,0.425,0.237h3.764 c0.173,0,0.334-0.09,0.425-0.237c0.091-0.147,0.1-0.331,0.023-0.486c-0.029-0.057-0.03-0.131-0.03-0.267v-4.721 c-0.001-0.144,0.002-0.212,0.029-0.266c0.078-0.155,0.069-0.339-0.022-0.486C39.997,46.738,39.836,46.648,39.663,46.648 L39.663,46.648z M39.663,47.648h0.005H39.663L39.663,47.648z"/></svg>